# Aspose.3D Wavefront OBJ Exporter
# Copyright 2004-2023 Aspose Pty Ltd.
# File created: 03/28/2023 10:43:52

mtllib material.lib

#
# object leaf
#

v 5031.98974609375 -16.29769820637011436 1107.7446915421762696
v 5041.30859375 -16.29769820637011436 1107.7446915421762696
v 5031.98974609375 2.4289175532099776 1065.33413586528808992
v 5041.30859375 2.4289175532099776 1065.33413586528808992
v 4940.4873046875 19.26066684731286928 1008.42812354126056104
v 5041.30859375 26.96015805542972288 1010.49119600989763512
v 4905.41943359375 62.48949835158203568 919.86686096232188
v 5041.30859375 70.49314064215906232 922.0114304685641855
v 4928.843017578125 63.69880295525206296 825.33674610934917836
v 5041.30859375 75.70979346302701176 828.55508134317972232
v 4979.99227905273437504 74.93288688898199728 757.51498993299674112
v 5041.30859375 68.93167224193084048 703.63599561252817696
v 5031.98974609375 -11.46806907763637896 1109.03878677780858197
v 5041.30859375 -11.46806907763637896 1109.03878677780858197
v 5031.98974609375 7.258546681943713 1066.6282311009206296
v 5041.30859375 7.258546681943713 1066.6282311009206296
v 4940.4873046875 24.09029597604660466 1009.7222187768931008
v 5041.30859375 31.78978718416345824 1011.78529124553006112
v 4905.41943359375 67.31912748031577108 921.16095619795430594
v 5041.30859375 75.32276977089279056 923.3055257041967252
v 4928.843017578125 68.5284320839857912 826.6308413449816044
v 5041.30859375 80.53942259176074 829.84917657881226208
v 4979.99227905273437504 79.76251601771573968 758.8090851686292808
v 5041.30859375 73.76130137066458304 704.93009084816071664
v 5050.62744140625 -16.29769820637011436 1107.7446915421762696
v 5041.30859375 -16.29769820637011436 1107.7446915421762696
v 5050.62744140625 2.4289175532099776 1065.33413586528808992
v 5041.30859375 2.4289175532099776 1065.33413586528808992
v 5142.1298828125 19.26066684731286928 1008.42812354126056104
v 5041.30859375 26.96015805542972288 1010.49119600989763512
v 5177.19775390625 62.48949835158203568 919.86686096232188
v 5041.30859375 70.49314064215906232 922.0114304685641855
v 5153.774169921875 63.69880295525206296 825.33674610934917836
v 5041.30859375 75.70979346302701176 828.55508134317972232
v 5102.62490844726562496 74.93288688898199728 757.51498993299674112
v 5041.30859375 68.93167224193084048 703.63599561252817696
v 5050.62744140625 -11.46806907763637896 1109.03878677780858197
v 5041.30859375 -11.46806907763637896 1109.03878677780858197
v 5050.62744140625 7.258546681943713 1066.6282311009206296
v 5041.30859375 7.258546681943713 1066.6282311009206296
v 5142.1298828125 24.09029597604660466 1009.7222187768931008
v 5041.30859375 31.78978718416345824 1011.78529124553006112
v 5177.19775390625 67.31912748031577108 921.16095619795430594
v 5041.30859375 75.32276977089279056 923.3055257041967252
v 5153.774169921875 68.5284320839857912 826.6308413449816044
v 5041.30859375 80.53942259176074 829.84917657881226208
v 5102.62490844726562496 79.76251601771573968 758.8090851686292808
v 5041.30859375 73.76130137066458304 704.93009084816071664
# 48 vertices

vn 0 -0.9147896949992224 -0.40393046063802472
vn 0.04431794211268425 -0.91546108188873504 -0.39995875486250024
vn 0.03572379425168037 -0.91547261712330192 -0.40079151537800176
vn 0 -0.9147896949992224 -0.40393046063802472
vn 0.04431794211268425 -0.91546108188873504 -0.39995875486250024
vn 0.06811420619487762 -0.89662055671115472 -0.4375294868395172
vn 0.06925003975629807 -0.9030779305994056 -0.42385706068850008
vn 0.03572379425168037 -0.91547261712330192 -0.40079151537800176
vn 0.06811420619487762 -0.89662055671115472 -0.4375294868395172
vn 0.0760723203420639 -0.96921768890742624 -0.23415784186291764
vn 0.07579553872346878 -0.96710168238467808 -0.24283604513963196
vn 0.06925003975629807 -0.9030779305994056 -0.42385706068850008
vn 0.0760723203420639 -0.96921768890742624 -0.23415784186291764
vn 0.0632888525724411 -0.99777594976981376 -0.02091783225503385
vn 0.0559670552611351 -0.99823956806005504 -0.01963343571916054
vn 0.07579553872346878 -0.96710168238467808 -0.24283604513963196
vn 0.0632888525724411 -0.99777594976981376 -0.02091783225503385
vn 0.03016011416912079 -0.99943094477658032 -0.01510194829474809
vn 0.03016011230647564 -0.99943088720291456 -0.01510193286793082
vn 0.0559670552611351 -0.99823956806005504 -0.01963343571916054
vn 0 0.9147896949992224 0.40393046063802472
vn 0 0.9147896949992224 0.40393046063802472
vn -0.03572379425168037 0.91547261712330192 0.40079151537800176
vn -0.04431794211268425 0.91546108188873504 0.39995875486250024
vn -0.04431794211268425 0.91546108188873504 0.39995875486250024
vn -0.03572379425168037 0.91547261712330192 0.40079151537800176
vn -0.06925002485513687 0.90307782316548272 0.42385700104803248
vn -0.06811420619487762 0.89662056056785904 0.43752947244610088
vn -0.06811420619487762 0.89662056056785904 0.43752947244610088
vn -0.06925002485513687 0.90307782316548272 0.42385700104803248
vn -0.07579553872346878 0.96710168479511824 0.24283603614374672
vn -0.0760723203420639 0.96921769469248272 0.23415782027279296
vn -0.0760723203420639 0.96921769469248272 0.23415782027279296
vn -0.07579553872346878 0.96710168479511824 0.24283603614374672
vn -0.0559670552611351 0.99823956806005504 0.01963343571916054
vn -0.0632888525724411 0.99777594976981376 0.02091783225503385
vn -0.0632888525724411 0.99777594976981376 0.02091783225503385
vn -0.0559670552611351 0.99823956806005504 0.01963343571916054
vn -0.03016011044383049 0.9994309486332848 0.01510193390133174
vn -0.03016011416912079 0.9994310139203592 0.0151019205413162
vn 0 -0.25881904712649284 0.96592582574674672
vn 0 -0.25881904712649284 0.96592582574674672
vn 0 -0.25881904712649284 0.96592582574674672
vn 0 -0.25881904712649284 0.96592582574674672
vn -0.63566291332244872 0.19979968461659616 -0.74566256807561856
vn -0.63566297292709352 0.19979966918977876 -0.7456625105019528
vn -0.63566291332244872 0.19979968461659616 -0.74566256807561856
vn -0.63566297292709352 0.19979966918977876 -0.7456625105019528
vn -0.80092352628707888 0.1549722381685218 -0.57836426176003952
vn -0.89273029565811152 0.11662159443641124 -0.43523771204844232
vn -0.91024130582809456 0.1071713575208239 -0.39996894803151176
vn -0.80092352628707888 0.1549722381685218 -0.57836426176003952
vn -0.89273029565811152 0.11662159443641124 -0.43523771204844232
vn -0.99905335903167728 -0.01125892808480181 0.04201889129906399
vn -0.99845427274703984 -0.01438507813457885 0.05368584201912956
vn -0.91024130582809456 0.1071713575208239 -0.39996894803151176
vn -0.99905335903167728 -0.01125892808480181 0.04201889129906399
vn -0.768880307674408 -0.16548701804320382 0.61760595415385208
vn -0.79493087530136112 -0.1570255167061792 0.58602720152044072
vn -0.99845427274703984 -0.01438507813457885 0.05368584201912956
vn -0.768880307674408 -0.16548701804320382 0.61760595415385208
vn -0.89157795906066896 -0.11721065974408806 0.43743613368724264
vn -0.86370867490768432 -0.13044259581491636 0.48681839097218056
vn -0.79493087530136112 -0.1570255167061792 0.58602720152044072
vn -0.89157795906066896 -0.11721065974408806 0.43743613368724264
vn -1 0 0
vn -1 0 0
vn -0.86370867490768432 -0.13044259581491636 0.48681839097218056
vn 0 -0.9147896949992224 -0.40393046063802472
vn 0 -0.9147896949992224 -0.40393046063802472
vn -0.03572379425168037 -0.91547261712330192 -0.40079151537800176
vn -0.04431794211268425 -0.91546108188873504 -0.39995875486250024
vn -0.04431794211268425 -0.91546108188873504 -0.39995875486250024
vn -0.03572379425168037 -0.91547261712330192 -0.40079151537800176
vn -0.06925002485513687 -0.90307782316548272 -0.42385700104803248
vn -0.06811420619487762 -0.89662056056785904 -0.43752947244610088
vn -0.06811420619487762 -0.89662056056785904 -0.43752947244610088
vn -0.06925002485513687 -0.90307782316548272 -0.42385700104803248
vn -0.07579553872346878 -0.96710168479511824 -0.24283603614374672
vn -0.0760723203420639 -0.96921769469248272 -0.23415782027279296
vn -0.0760723203420639 -0.96921769469248272 -0.23415782027279296
vn -0.07579553872346878 -0.96710168479511824 -0.24283603614374672
vn -0.0559670552611351 -0.99823956806005504 -0.01963343571916054
vn -0.0632888525724411 -0.99777594976981376 -0.02091783225503385
vn -0.0632888525724411 -0.99777594976981376 -0.02091783225503385
vn -0.0559670552611351 -0.99823956806005504 -0.01963343571916054
vn -0.03016011044383049 -0.9994309486332848 -0.01510193390133174
vn -0.03016011416912079 -0.9994310139203592 -0.0151019205413162
vn 0 0.9147896949992224 0.40393046063802472
vn 0.04431794211268425 0.91546108188873504 0.39995875486250024
vn 0.03572379425168037 0.91547261712330192 0.40079151537800176
vn 0 0.9147896949992224 0.40393046063802472
vn 0.04431794211268425 0.91546108188873504 0.39995875486250024
vn 0.06811420619487762 0.89662055671115472 0.4375294868395172
vn 0.06925003975629807 0.9030779305994056 0.42385706068850008
vn 0.03572379425168037 0.91547261712330192 0.40079151537800176
vn 0.06811420619487762 0.89662055671115472 0.4375294868395172
vn 0.0760723203420639 0.96921768890742624 0.23415784186291764
vn 0.07579553872346878 0.96710168238467808 0.24283604513963196
vn 0.06925003975629807 0.9030779305994056 0.42385706068850008
vn 0.0760723203420639 0.96921768890742624 0.23415784186291764
vn 0.0632888525724411 0.99777594976981376 0.02091783225503385
vn 0.0559670552611351 0.99823956806005504 0.01963343571916054
vn 0.07579553872346878 0.96710168238467808 0.24283604513963196
vn 0.0632888525724411 0.99777594976981376 0.02091783225503385
vn 0.03016011416912079 0.99943094477658032 0.01510194829474809
vn 0.03016011230647564 0.99943088720291456 0.01510193286793082
vn 0.0559670552611351 0.99823956806005504 0.01963343571916054
vn 0 -0.25881904712649284 0.96592582574674672
vn 0 -0.25881904712649284 0.96592582574674672
vn 0 -0.25881904712649284 0.96592582574674672
vn 0 -0.25881904712649284 0.96592582574674672
vn 0.63566291332244872 0.19979968461659616 -0.74566256807561856
vn 0.63566297292709352 0.19979966918977876 -0.7456625105019528
vn 0.63566291332244872 0.19979968461659616 -0.74566256807561856
vn 0.63566297292709352 0.19979966918977876 -0.7456625105019528
vn 0.80092352628707888 0.1549722381685218 -0.57836426176003952
vn 0.80092352628707888 0.1549722381685218 -0.57836426176003952
vn 0.91024130582809456 0.1071713575208239 -0.39996894803151176
vn 0.89273029565811152 0.11662159443641124 -0.43523771204844232
vn 0.89273029565811152 0.11662159443641124 -0.43523771204844232
vn 0.91024130582809456 0.1071713575208239 -0.39996894803151176
vn 0.99845427274703984 -0.01438507813457885 0.05368584201912956
vn 0.99905335903167728 -0.01125892808480181 0.04201889129906399
vn 0.99905335903167728 -0.01125892808480181 0.04201889129906399
vn 0.99845427274703984 -0.01438507813457885 0.05368584201912956
vn 0.79493087530136112 -0.1570255167061792 0.58602720152044072
vn 0.768880307674408 -0.16548701804320382 0.61760595415385208
vn 0.768880307674408 -0.16548701804320382 0.61760595415385208
vn 0.79493087530136112 -0.1570255167061792 0.58602720152044072
vn 0.86370867490768432 -0.13044259581491636 0.48681839097218056
vn 0.89157795906066896 -0.11721065974408806 0.43743613368724264
vn 0.89157795906066896 -0.11721065974408806 0.43743613368724264
vn 0.86370867490768432 -0.13044259581491636 0.48681839097218056
vn 1 0 0
vn 1 0 0
# 136 vertex normals

vt 0.75376200675964352 0.19779428839683532 0
vt 0.75376200675964352 0.28536531329154968 0
vt 0.73594880104064944 0.28536531329154968 0
vt 0.73594880104064944 0.19779428839683532 0
vt 0.92867076396942144 0.39876314997673032 0
vt 0.73594880104064944 0.39876314997673032 0
vt 0.99570369720458992 0.58366841077804568 0
vt 0.73594880104064944 0.58366841077804568 0
vt 0.95092904567718512 0.75880587100982672 0
vt 0.73594880104064944 0.75880587100982672 0
vt 0.85315614938735968 0.88958895206451424 0
vt 0.73594874143600464 0.9861013889312744 0
vt 0.24333296716213228 0.00066479621455073 0
vt 0.26114612817764284 0.00066479621455073 0
vt 0.26114612817764284 0.08823584020137787 0
vt 0.24333296716213228 0.08823584020137787 0
vt 0.26114612817764284 0.20163364708423616 0
vt 0.06842415034770966 0.20163364708423616 0
vt 0.26114612817764284 0.38653889298439024 0
vt 0.00139121897518634 0.38653889298439024 0
vt 0.26114612817764284 0.5616764426231384 0
vt 0.04616586863994598 0.5616764426231384 0
vt 0.26114612817764284 0.78897190093994144 0
vt 0.14393870532512664 0.69245946407318112 0
vt 0.71721780300140384 0.19727173447608948 0
vt 0.73503094911575312 0.19727173447608948 0
vt 0.73503094911575312 0.2848428189754486 0
vt 0.71721780300140384 0.2848428189754486 0
vt 0.73503094911575312 0.39824065566062928 0
vt 0.542309045791626 0.39824065566062928 0
vt 0.73503094911575312 0.58314585685729984 0
vt 0.47527611255645752 0.58314585685729984 0
vt 0.73503094911575312 0.758283257484436 0
vt 0.52005076408386232 0.758283257484436 0
vt 0.73503088951110832 0.98557877540588384 0
vt 0.61782354116439816 0.88906633853912352 0
vt 0.27938917279243468 0.00050000002374872 0
vt 0.27938917279243468 0.08807104825973511 0
vt 0.26157599687576292 0.08807104825973511 0
vt 0.26157599687576292 0.00050000002374872 0
vt 0.45429790019989016 0.2014688402414322 0
vt 0.26157599687576292 0.2014688402414322 0
vt 0.52133089303970336 0.38637408614158632 0
vt 0.26157599687576292 0.38637408614158632 0
vt 0.47655618190765384 0.56151151657104496 0
vt 0.26157599687576292 0.56151151657104496 0
vt 0.37878334522247312 0.692294716835022 0
vt 0.26157599687576292 0.78880709409713744 0
vt 0.7753032445907592 0.00050000002374872 0
vt 0.7753032445907592 0.0100576002150774 0
vt 0.64452010393142704 0.0100576002150774 0
vt 0.64452010393142704 0.00050000002374872 0
vt 0.469382643699646 0.0100576002150774 0
vt 0.469382643699646 0.00050000002374872 0
vt 0.28447741270065308 0.0100576002150774 0
vt 0.28447741270065308 0.00050000002374872 0
vt 0.1842569410800934 0.07378449290990829 0
vt 0.1842569410800934 0.08334209024906158 0
vt 0.09668589383363724 0.08334209024906158 0
vt 0.09668589383363724 0.07378449290990829 0
vt 0.28447741270065308 0.02340140379965305 0
vt 0.41526052355766296 0.02340140379965305 0
vt 0.41526052355766296 0.03295900300145149 0
vt 0.28447741270065308 0.03295900300145149 0
vt 0.5903979539871216 0.02340140379965305 0
vt 0.5903979539871216 0.03295900300145149 0
vt 0.7753032445907592 0.02340140379965305 0
vt 0.7753032445907592 0.03295900300145149 0
vt 0.08294504880905151 0.06004365161061287 0
vt 0.17051608860492706 0.06004365161061287 0
vt 0.17051608860492706 0.06960124522447586 0
vt 0.08294504880905151 0.06960124522447586 0
vt 0.06462393701076508 0.04630281031131744 0
vt 0.18183130025863648 0.04630281031131744 0
vt 0.18183130025863648 0.05586041137576103 0
vt 0.06462393701076508 0.05586041137576103 0
vt 0.16809044778347016 0.03256196901202202 0
vt 0.16809044778347016 0.0421195700764656 0
vt 0.05088309198617935 0.0421195700764656 0
vt 0.05088309198617935 0.03256196901202202 0
vt 0.1287478655576706 0.10126618295907974 0
vt 0.14656102657318116 0.10126618295907974 0
vt 0.14656102657318116 0.11082378029823304 0
vt 0.1287478655576706 0.11082378029823304 0
vt 0.03256196901202202 0.01882112212479114 0
vt 0.20747072994709016 0.01882112212479114 0
vt 0.20747072994709016 0.02837872318923473 0
vt 0.03256196901202202 0.02837872318923473 0
vt 0.13282015919685364 0.08752533793449402 0
vt 0.13282015919685364 0.0970829352736473 0
vt 0.11500701308250428 0.0970829352736473 0
vt 0.11500701308250428 0.08752533793449402 0
vt 0.222692608833313 0.00508028082549572 0
vt 0.222692608833313 0.0146378818899393 0
vt 0.01424084417521953 0.0146378818899393 0
vt 0.01424084417521953 0.00508028082549572 0
# 96 texture coords

g leaf
usemtl leaf
s 1
f 1/1/1 3/2/2 4/3/3 2/4/4
f 3/2/5 5/5/6 6/6/7 4/3/8
f 5/5/9 7/7/10 8/8/11 6/6/12
f 7/7/13 9/9/14 10/10/15 8/8/16
f 9/9/17 11/11/18 12/12/19 10/10/20
f 13/13/21 14/14/22 16/15/23 15/16/24
f 15/16/25 16/15/26 18/17/27 17/18/28
f 17/18/29 18/17/30 20/19/31 19/20/32
f 19/20/33 20/19/34 22/21/35 21/22/36
f 21/22/37 22/21/38 24/23/39 23/24/40
f 1/81/41 2/82/42 14/83/43 13/84/44
f 12/73/45 11/74/46 23/75/47 24/76/48
f 11/61/49 9/62/50 21/63/51 23/64/52
f 9/62/53 7/65/54 19/66/55 21/63/56
f 7/65/57 5/67/58 17/68/59 19/66/60
f 5/85/61 3/86/62 15/87/63 17/88/64
f 3/69/65 1/70/66 13/71/67 15/72/68
f 25/25/69 26/26/70 28/27/71 27/28/72
f 27/28/73 28/27/74 30/29/75 29/30/76
f 29/30/77 30/29/78 32/31/79 31/32/80
f 31/32/81 32/31/82 34/33/83 33/34/84
f 33/34/85 34/33/86 36/35/87 35/36/88
f 37/37/89 39/38/90 40/39/91 38/40/92
f 39/38/93 41/41/94 42/42/95 40/39/96
f 41/41/97 43/43/98 44/44/99 42/42/100
f 43/43/101 45/45/102 46/46/103 44/44/104
f 45/45/105 47/47/106 48/48/107 46/46/108
f 25/89/109 37/90/110 38/91/111 26/92/112
f 36/77/113 48/78/114 47/79/115 35/80/116
f 35/49/117 47/50/118 45/51/119 33/52/120
f 33/52/121 45/51/122 43/53/123 31/54/124
f 31/54/125 43/53/126 41/55/127 29/56/128
f 29/93/129 41/94/130 39/95/131 27/96/132
f 27/57/133 39/58/134 37/59/135 25/60/136
#34 polygons

